<?xml version="1.0" encoding="UTF-8"?>
<svg width="200px" height="200px" viewBox="0 0 200 200" version="1.1" xmlns="http://www.w3.org/2000/svg" xmlns:xlink="http://www.w3.org/1999/xlink">
    <!-- Generator: Sketch 54.1 (76490) - https://sketchapp.com -->
    <title>ark-fort-smith</title>
    <desc>Created with Sketch.</desc>
    <g id="ark-fort-smith" stroke="none" stroke-width="1" fill="none" fill-rule="evenodd">
        <g id="ark-fort-smith_BGD">
            <g id="ark-fort-smith" transform="translate(0.000000, 1.000000)">
                <g fill-rule="nonzero" id="g10">
                    <g transform="translate(99.670207, 99.247042) scale(-1, 1) rotate(-180.000000) translate(-99.670207, -99.247042) translate(0.611474, 0.807093)">
                        <g id="g12" transform="translate(1.100653, 0.000000)">
                            <path d="M192.194732,91.5513538 C190.925313,92.4326665 189.112905,93.8714794 187.686949,94.5846493 C188.089298,91.9665136 188.34734,89.518844 188.420717,87.3645376 C188.838965,74.333901 184.666269,63.735159 178.930646,56.2561686 C178.286153,57.4116457 177.307795,59.6180457 176.246276,60.7478429 C176.100746,58.8036233 175.922195,56.8054757 175.709403,54.707054 C167.066834,42.5969837 164.05716,41.0025011 159.954172,37.9734855 C159.692461,39.1644254 159.319463,41.3425775 158.871864,42.7656156 C156.001606,38.2716179 152.479518,34.0274498 148.085468,30.1654244 C148.168629,32.0097366 148.273802,34.3292508 148.179635,36.0106785 C142.408547,26.6401736 133.039547,16.5366886 118.08706,6.56807237 C125.618703,20.2774067 128.907208,33.4709278 129.804852,44.1231086 C125.917102,31.277001 120.931758,19.7310344 112.354494,5.75363771 C108.033577,18.0190352 102.016798,22.5349221 93.3915953,25.8453169 C86.1949172,28.6023692 82.9444455,37.4327383 81.9552034,47.6278154 C79.3587639,41.9745497 78.2137183,34.6985535 77.9084707,31.3567312 C77.912751,31.3342306 77.9145854,31.3161324 77.918988,31.2955884 C77.9137294,31.3003575 77.9089599,31.3065941 77.9041904,31.3113632 C77.9037012,31.3065941 77.903212,31.3003575 77.9022337,31.2955884 L77.8950183,31.3209015 C75.2193318,33.9600704 72.8403324,36.8628872 70.7021313,40.0360776 C69.775871,37.9070844 68.8710123,35.4284765 68.712396,34.202196 C58.0909762,37.0109751 47.9222915,37.6419691 37.317993,34.7659329 C37.6782733,38.3623539 38.2319015,42.0552582 38.9556417,45.8007454 C36.7070085,42.5263026 33.9663835,36.9999694 32.7033235,35.0606413 C32.7013668,35.0520813 32.7000216,35.0448664 32.6980649,35.0363064 C24.4216466,45.6211078 18.603597,59.4809635 13.8676112,76.9138836 C15.7282032,80.4462269 17.8407224,83.8498035 20.1102681,87.1562852 C16.4190462,85.5039615 12.4382303,82.8715183 10.9425168,81.7804857 C5.09290298,100.610519 13.0043327,127.764048 20.3495989,138.314854 C23.4256783,142.723252 27.4571241,147.086404 32.2409272,151.390859 C30.0940431,151.60975 27.2879905,151.708801 25.5844249,151.827419 C37.3342582,168.24549 72.9005014,190.847547 103.249284,191.959124 C115.196868,192.390792 129.673996,189.347102 139.259458,184.630544 C140.675631,185.064659 142.569976,186.058841 143.632717,187.405206 C156.894358,182.236191 195.848899,149.200723 192.194732,91.5513538 Z M141.688231,191.529901 C138.232182,188.61828 131.250376,189.715182 123.805072,192.741752 C116.541621,195.682722 107.285867,197.125692 100.5215,196.695247 C45.7941186,193.257797 9.39759195,149.53334 4.41073073,131.186824 C8.73309129,136.606524 13.0043327,140.626053 18.4717633,144.995319 C7.15424184,128.196939 -2.85004205,85.0549286 0.938230511,61.0902427 C2.25099353,65.4644004 4.02855969,69.8666838 6.43909893,73.6723356 C11.5253246,51.0542593 27.5965401,26.0774151 36.421328,17.3520893 C38.6987005,29.1345564 61.4831875,30.6315773 73.9138355,27.8896884 C81.0445968,26.3109807 87.4755876,23.7319763 92.9755486,20.7910064 C99.0100599,17.5527601 112.934905,4.94158761 111.590152,0 C119.152369,3.49230699 136.003972,13.8989871 146.873528,26.8918375 C180.010508,40.586363 195.402523,72.4933796 196.033564,91.9678587 C198.111352,154.951817 157.162183,183.734191 141.688231,191.529901 L141.688231,191.529901 Z" id="path14" fill="#FFFFFF"></path>
                            <path d="M175.028221,91.4251874 C175.038836,91.3604396 175.046797,91.2992741 175.054759,91.2345263 L175.09722,91.1453654 C175.073335,91.2354551 175.050778,91.3340363 175.028221,91.4251874" id="path16" fill="#FFFFFF"></path>
                            <path d="M25.5844249,151.827419 C27.2879905,151.708801 30.0940431,151.60975 32.2409272,151.390859 C40.7675605,159.065506 51.7153849,166.549388 64.1097115,173.748344 C53.1566283,169.939146 36.4863888,161.117459 25.5844249,151.827419" id="path18" fill="#9C8103"></path>
                            <path d="M68.4128962,134.626719 C58.5576529,129.807441 37.0204499,120.783861 10.9425168,81.7804857 C12.4382303,82.8715183 16.4190462,85.5039615 20.1102681,87.1562852 C33.4504221,106.592 52.9603453,122.199684 68.4128962,134.626719" id="path20" fill="#9C8103"></path>
                            <path d="M32.7033235,35.0606413 C33.9663835,36.9999694 36.7070085,42.5263026 38.9556417,45.8007454 C41.6699733,59.854057 46.919597,74.6663956 54.63615,88.063767 C44.9175099,77.8778614 37.1078906,57.416904 32.7033235,35.0606413" id="path22" fill="#9C8103"></path>
                            <path d="M68.712396,34.202196 C68.8710123,35.4284765 69.775871,37.9070844 70.7021313,40.0360776 C63.0252018,51.4258854 58.6360438,66.4928227 56.4146823,87.0812018 C55.5662015,73.9389183 55.5662015,57.4842834 68.712396,34.202196" id="path24" fill="#9C8103"></path>
                            <path d="M82.1070934,65.0291858 C77.7608609,53.1661325 75.0034816,46.4184103 77.9084707,31.3567312 C78.2137183,34.6985535 79.3587639,41.9745497 81.9552034,47.6278154 C81.4067115,53.2764341 81.5495517,59.342903 82.1070934,65.0291858" id="path26" fill="#9C8103"></path>
                            <path d="M77.902847,31.2955884 C77.9039085,31.3007629 77.9044392,31.3075296 77.90497,31.3127041 C77.9007239,31.3168172 77.8982028,31.3203995 77.8950183,31.3230531 L77.902847,31.2955884" id="path28" fill="#9C8103"></path>
                            <path d="M156.72926,62.6556213 C156.435753,55.3538228 154.3971,46.1064596 148.179635,36.0106785 C148.273802,34.3292508 148.168629,32.0097366 148.085468,30.1654244 C159.187384,45.9536025 158.475629,56.6049273 156.72926,62.6556213" id="path30" fill="#9C8103"></path>
                            <path d="M158.871864,42.7656156 C159.319463,41.3425775 159.692461,39.1644254 159.954172,37.9734855 C174.509691,62.7387755 172.449025,74.8512916 172.933312,88.9752842 C170.477634,73.8677481 168.001166,57.053471 158.871864,42.7656156" id="path32" fill="#9C8103"></path>
                            <path d="M175.091814,91.1453654 L175.05268,91.2275414 C176.791711,79.7345245 177.025294,71.1163209 176.246276,60.7478429 C177.307795,59.6180457 178.286153,57.4116457 178.930646,56.2561686 C179.756135,62.7693469 177.878911,80.1606899 175.091814,91.1453654" id="path34" fill="#9C8103"></path>
                            <path d="M187.686949,94.5846493 C189.112905,93.8714794 190.925313,92.4326665 192.194732,91.5513538 C188.819398,107.720819 184.465705,118.691553 178.233566,126.25382 C182.495537,117.029325 186.166825,104.526473 187.686949,94.5846493" id="path36" fill="#9C8103"></path>
                            <path d="M116.345705,164.724886 C112.934905,164.474201 111.174472,163.209767 110.725406,163.096041 C108.56617,162.496842 108.131535,163.941035 110.008881,166.897902 C110.926092,167.031194 112.137054,167.049536 112.853701,166.332943 C113.634798,165.55276 114.848084,165.05628 116.345705,164.724886 L116.345705,164.724886 Z M162.793856,158.139804 C160.966773,159.621906 159.337807,160.217437 157.77488,160.351951 C159.203283,160.634431 160.681826,161.682419 162.012393,160.499917 C162.843997,159.136432 162.726594,158.739004 162.793856,158.139804 L162.793856,158.139804 Z M159.954172,163.192647 C155.233595,161.700762 152.724108,162.427139 150.844438,163.75883 C152.107742,162.644807 153.253644,161.546682 153.591177,160.585517 C157.162183,159.603563 163.12772,157.196982 169.825803,149.983351 C171.635765,148.036563 172.367087,146.692644 171.868125,143.8654 C170.687981,137.202055 169.061461,133.181303 165.454989,129.456482 C165.720369,131.902195 163.27692,133.380628 160.58399,134.358913 C155.631053,136.169964 154.035107,137.952889 153.238968,139.847093 C153.320906,139.826305 153.40162,139.810408 153.471328,139.793288 C159.45521,142.918909 161.54645,147.888598 163.873718,152.740892 C160.681826,154.518926 157.376199,156.080514 153.834544,157.196982 C149.864857,158.02241 146.193569,158.242524 143.201017,157.06369 C137.698977,156.912056 134.425147,157.92825 130.468912,158.587369 C131.233254,155.598708 137.665957,153.072287 142.94909,150.460265 C147.022727,143.453297 148.899951,141.55787 150.431081,140.491539 C148.551411,137.85506 145.06112,137.985906 139.84158,137.719323 C139.07357,137.681414 138.31045,137.643506 137.553446,137.601929 C137.378565,137.592146 137.204906,137.58114 137.031248,137.571357 C136.501711,137.53834 135.977067,137.500432 135.454868,137.458855 C135.232292,137.440512 135.009716,137.423392 134.788362,137.402603 C134.511976,137.376923 134.236813,137.346352 133.962873,137.31578 C133.732959,137.2901 133.50549,137.263198 133.275576,137.232626 C133.007751,137.198386 132.737479,137.164146 132.469654,137.123792 C132.095432,137.067541 131.724879,137.002729 131.354326,136.931803 C131.079163,136.880443 130.806446,136.820523 130.532505,136.760604 C130.256119,136.699461 129.97851,136.634649 129.702124,136.563724 C129.477102,136.506249 129.253303,136.446329 129.029503,136.381518 C128.696862,136.284912 128.366666,136.178524 128.037693,136.066021 C127.800441,135.98409 127.561966,135.899713 127.327161,135.809221 C126.973729,135.673484 126.622743,135.529187 126.271757,135.371439 C124.436113,134.543565 122.649387,133.400194 120.915125,131.787246 C115.762971,135.326193 109.846474,136.456112 107.402903,148.387523 C107.254926,149.666631 107.718301,150.697499 108.814551,151.476459 C114.382385,156.031599 118.688994,157.023336 123.041953,158.191164 C123.400277,158.314672 123.772053,158.436958 124.165842,158.553129 C124.192747,158.625278 124.230658,158.691312 124.258786,158.762238 L124.253894,158.770798 C124.284468,158.845392 124.326048,158.911426 124.356621,158.983575 C124.461795,159.223255 124.569414,159.461712 124.697824,159.686717 C124.777315,159.827346 124.871482,159.958192 124.959535,160.093929 C125.072046,160.263906 125.180888,160.437551 125.309297,160.598968 C125.436484,160.761608 125.583238,160.909574 125.726322,161.061208 C125.842502,161.185939 125.951345,161.313117 126.078531,161.430511 C126.254636,161.594374 126.456422,161.742339 126.653317,161.891528 C126.775611,161.983242 126.886899,162.08107 127.015309,162.167893 C127.239108,162.318305 127.489813,162.451596 127.738071,162.584887 C127.868926,162.657036 127.989998,162.736522 128.129414,162.803779 C128.393571,162.929733 128.687078,163.038567 128.979362,163.148624 C129.131008,163.206098 129.267978,163.273356 129.426961,163.325938 C129.735144,163.428658 130.0739,163.51059 130.410211,163.594967 C130.5802,163.637767 130.733069,163.691572 130.911619,163.729481 C131.435041,163.841984 131.990259,163.936144 132.580942,164.008292 C132.042845,164.026635 131.567119,164.065767 131.130527,164.120795 C131.11952,164.123241 131.104845,164.123241 131.091392,164.125686 C130.915288,164.148921 130.751413,164.175824 130.589984,164.205172 C130.541066,164.212509 130.488479,164.221069 130.440784,164.230852 C130.308706,164.256532 130.186411,164.285881 130.064117,164.315229 C129.995632,164.332349 129.923478,164.348246 129.857439,164.366589 C129.760826,164.393492 129.671551,164.421618 129.583498,164.450966 C129.501561,164.477869 129.420846,164.505995 129.345024,164.535343 C129.278984,164.561023 129.215391,164.587926 129.153021,164.614829 C129.066192,164.652738 128.984254,164.693092 128.904763,164.734669 C128.861959,164.757903 128.819156,164.781138 128.778799,164.805595 C128.69197,164.856955 128.612478,164.909538 128.537878,164.964566 C128.512196,164.984132 128.484069,165.003697 128.45961,165.023263 C128.431482,165.045275 128.399685,165.06484 128.374003,165.088075 C128.377672,165.089297 128.381341,165.09052 128.383787,165.092966 C128.323863,165.145549 128.261492,165.196909 128.210129,165.25316 C127.04466,163.345504 124.288136,163.394418 121.079856,163.972829 C115.196868,166.018668 114.432526,167.929993 112.340186,169.876781 C111.757329,170.522449 110.758915,170.455192 109.712683,170.271763 C106.356794,169.325272 105.857587,168.210027 104.42686,167.148588 C103.249284,166.879559 102.666428,166.915022 102.03343,166.933365 C105.623514,166.249788 106.755719,164.272429 107.567756,162.112865 C107.949927,160.717585 109.146581,159.6537 111.107577,158.905312 C114.582949,162.610567 118.321132,163.972829 122.443932,161.579699 C121.994743,160.320157 120.915125,159.42258 119.634822,158.605712 C110.873505,158.057872 104.445938,155.864068 99.9243353,152.308001 C97.1975296,150.361214 96.6825465,147.655032 97.6801046,144.465822 C103.046153,133.762159 109.860782,129.295065 117.222314,127.065797 C117.640317,126.965523 118.039242,126.866471 118.454922,126.751523 C115.545653,121.248669 112.970737,113.522172 110.873505,107.65723 C109.695929,104.349281 109.894291,102.738045 110.044714,101.886937 C112.187317,89.9879317 118.321132,76.8436917 124.087573,71.0760889 C124.814004,70.3472665 125.637047,69.6431457 126.518792,68.9801129 C126.915027,68.6806353 127.323492,68.3920412 127.74174,68.1131076 C127.882379,68.0176025 128.026686,67.9258883 128.168548,67.834174 C128.608809,67.5532839 129.053962,67.2781412 129.507676,67.0210967 C129.565154,66.9891802 129.625079,66.9576305 129.68378,66.9246134 C130.155838,66.6629221 130.631564,66.4183508 131.109737,66.188576 C131.197789,66.1455315 131.287064,66.1016309 131.376339,66.0600538 C131.887531,65.8226974 132.3975,65.6038061 132.907469,65.4094942 C132.968617,65.385037 133.030987,65.3631479 133.09458,65.339669 C134.162213,64.9408955 135.207833,64.6460648 136.192306,64.4789003 C136.236332,64.4713186 136.280358,64.4617804 136.324384,64.4555438 C136.801333,64.3796044 137.261162,64.337049 137.701423,64.3246981 C137.760124,64.3237199 137.81638,64.3246981 137.872635,64.3246981 C138.312896,64.3222524 138.736036,64.3465873 139.127379,64.4154341 C142.171295,64.9790487 144.845881,66.7225975 147.220845,69.3344967 C146.642391,59.1824642 138.580722,49.0437609 130.736738,46.6338776 C130.656023,46.7006455 130.588761,46.7680249 130.503155,46.8316135 C130.499486,46.8368718 130.49704,46.8416409 130.494594,46.84641 C125.141754,51.5434019 123.539693,54.7338345 113.732634,73.9389183 C108.100472,84.970796 100.769881,90.1422562 98.1950878,100.577135 C93.8406615,95.0236548 89.3200367,87.0000041 84.3179376,72.0911821 C84.1851255,80.8681124 86.4270326,97.6546306 96.6003645,111.695958 C95.9173484,113.969738 95.7023542,117.061241 96.3161515,120.949558 C86.7112455,123.078062 80.3791912,128.995465 78.8161422,140.478087 C72.336845,132.051383 65.2715114,116.34856 63.3439018,101.586848 C70.6404947,112.523832 78.4014408,116.612208 86.3453397,118.207669 C70.7905504,109.552658 63.0118716,99.314536 56.8460158,88.7292455 C53.5049237,109.332421 75.3932349,133.444217 81.3751595,154.868663 C75.4586626,157.078364 72.0029804,164.609938 74.3624126,167.499548 C74.5205397,167.394382 74.6824579,167.294108 74.8468221,167.197502 C74.8759282,167.180382 74.9050344,167.164485 74.9346297,167.147365 C75.0684201,167.070325 75.2036781,166.995731 75.3412597,166.924805 C75.3980044,166.895456 75.4553606,166.868554 75.5127169,166.840428 C75.626451,166.784177 75.7415303,166.730371 75.857588,166.679011 C75.9302311,166.647217 76.0028742,166.617868 76.0763733,166.58852 C76.1820359,166.544497 76.2880655,166.504142 76.3950734,166.465011 C76.4757879,166.435662 76.5569916,166.40876 76.6381953,166.38308 C76.7432465,166.350062 76.8484199,166.317045 76.9549387,166.28892 C77.0376099,166.265685 77.120648,166.244897 77.2042976,166.225331 C77.312773,166.199651 77.4230829,166.176417 77.5333927,166.155628 C77.6150856,166.140954 77.6967785,166.127503 77.7794497,166.114051 C77.8955074,166.096931 78.0125435,166.08348 78.1305579,166.072474 C78.2079705,166.065137 78.2858722,166.059023 78.3636517,166.055354 C78.490349,166.046794 78.6182693,166.045571 78.7458227,166.045571 C78.8165091,166.046794 78.8868285,166.046794 78.9580041,166.04924 C79.0979093,166.055354 79.2389151,166.06636 79.3802878,166.081034 C79.4414352,166.088371 79.5016042,166.093263 79.5622623,166.101823 C79.7170875,166.122611 79.8727687,166.153183 80.0285722,166.1862 C80.078713,166.197205 80.1283647,166.205765 80.1780163,166.217994 C80.3491067,166.259571 80.5200747,166.310931 80.6920211,166.368405 C80.729321,166.380634 80.7666209,166.390417 80.8042877,166.403868 C80.991154,166.469902 81.1793656,166.546942 81.3675772,166.631319 C81.3919138,166.643548 81.4157613,166.652108 81.4402203,166.663114 C81.6427403,166.758497 81.8467279,166.864885 82.0507156,166.983502 C82.0625782,166.990839 82.0740739,166.996954 82.0860587,167.003068 C82.740947,167.388268 83.4035399,167.901867 84.0690678,168.563433 C86.9946024,171.46894 87.9404299,174.044276 95.7529843,174.177567 C100.105943,181.32394 127.443341,193.056026 145.925743,170.188609 C145.742301,172.984059 144.4472,175.970275 142.65069,179.079999 C150.478776,176.453303 157.677044,170.089558 164.523103,161.646956 C162.726594,162.846579 161.117195,163.559504 159.954172,163.192647 L159.954172,163.192647 Z M172.515064,97.3522182 C170.224484,105.80766 167.647734,113.155315 164.241825,117.791164 C166.11905,116.097752 168.485453,113.576589 172.374425,103.764144 C171.793525,111.633959 169.858823,121.377069 168.827878,129.059053 C171.271327,119.520406 173.466517,109.856904 173.399255,99.2548606 C173.429829,96.893647 173.031148,96.2273125 172.515064,97.3522182 L172.515064,97.3522182 Z M163.490936,125.769569 C162.545598,118.458966 159.736488,114.135557 156.561716,111.478657 C155.764355,110.794102 155.381572,111.327267 155.530772,112.442634 C156.38072,118.093577 156.363599,124.075913 155.217697,130.604744 C153.870009,131.518218 152.573685,132.333863 151.178302,132.468377 C145.594325,133.014994 141.108554,132.382777 137.052038,131.635612 C135.688451,124.672667 132.896463,119.238537 129.606734,114.417303 C129.00749,113.539781 128.706645,113.555067 128.193007,114.619441 C126.246075,118.62234 126.549366,123.960964 126.647202,129.197236 C126.681444,130.322264 127.063004,131.087772 127.744186,131.437509 C135.986851,135.707724 146.341546,135.942513 151.842363,134.475085 C156.879683,133.148285 162.129795,130.970378 163.30994,127.33238 C163.424897,126.948403 163.541077,126.218358 163.490936,125.769569 L163.490936,125.769569 Z M154.834915,77.8252786 C154.949872,84.6068739 153.671892,96.7207351 153.007831,98.1681081 C152.324204,99.6823713 151.641799,102.337315 151.641799,104.530875 C147.672112,98.0344498 145.412106,90.1087499 142.785215,82.4635733 C143.632717,91.2872168 144.880123,100.510245 153.007831,116.810556 C152.706986,113.090871 152.52599,109.683503 153.088546,108.52179 C156.894358,91.8350565 155.481854,84.7907916 154.834915,77.8252786 L154.834915,77.8252786 Z M145.727626,72.9065828 C145.211542,71.8122486 144.397059,71.1301392 143.549557,70.5157761 C142.121154,69.796981 140.692752,69.0851563 138.795961,68.7330959 C135.32279,68.6352673 131.300516,69.8824587 126.762159,72.5106219 C125.718985,73.0240994 125.085498,73.5375768 124.639122,74.0707422 C123.191153,78.0402568 121.595818,82.0308044 122.809593,86.0031315 C123.523794,87.1156863 124.220874,87.9314539 124.80422,86.5343404 C125.050033,84.8537687 125.448713,83.1609684 126.181259,81.4843098 C127.842021,78.9717066 129.738813,76.4806256 130.619335,73.9718132 C133.029764,72.3758631 135.705573,71.4626339 138.580722,71.0431941 C139.194641,71.163034 139.811007,71.4272933 140.442048,71.7941503 C140.907991,73.9044338 142.502714,76.3654325 145.228663,79.1732333 C146.059045,80.1715734 146.820941,81.431727 147.404287,83.2612426 C147.903249,84.190369 148.26891,84.1067256 148.519615,83.0281662 C148.399766,78.5585033 147.25631,75.4822855 145.727626,72.9065828 Z M143.632717,187.405206 C142.569976,186.058841 140.675631,185.064659 139.259458,184.630544 C129.673996,189.347102 115.196868,192.390792 103.249284,191.959124 C72.9005014,190.847547 37.3342582,168.24549 25.5844249,151.827419 C36.4863888,161.117459 53.1566283,169.939146 64.1097115,173.748344 C51.7153849,166.549388 40.7675605,159.065506 32.2409272,151.390859 C27.4571241,147.086404 23.4256783,142.723252 20.3495989,138.314854 C13.0043327,127.764048 5.09290298,100.610519 10.9425168,81.7804857 C37.0204499,120.783861 58.5576529,129.807441 68.4128962,134.626719 C52.9603453,122.199684 33.4504221,106.592 20.1102681,87.1562852 C17.8407224,83.8498035 15.7282032,80.4462269 13.8676112,76.9138836 C18.603597,59.4809635 24.4216466,45.6211078 32.6980649,35.0363064 C32.7000216,35.0448664 32.7013668,35.0520813 32.7033235,35.0606413 C37.1078906,57.416904 44.9175099,77.8778614 54.63615,88.063767 C46.919597,74.6663956 41.6699733,59.854057 38.9556417,45.8007454 C38.2319015,42.0552582 37.6782733,38.3623539 37.317993,34.7659329 C47.9222915,37.6419691 58.0909762,37.0109751 68.712396,34.202196 C55.5662015,57.4842834 55.5662015,73.9389183 56.4146823,87.0812018 C58.6360438,66.4928227 63.0252018,51.4258854 70.7021313,40.0360776 C72.8403324,36.8628872 75.2193318,33.9600704 77.8950183,31.3209015 C77.8979533,31.3184558 77.9002769,31.3151541 77.9041904,31.3113632 C77.9089599,31.3065941 77.9137294,31.3003575 77.918988,31.2955884 C77.9145854,31.3161324 77.912751,31.3342306 77.9084707,31.3567312 C75.0034816,46.4184103 77.7608609,53.1661325 82.1070934,65.0291858 C81.5495517,59.342903 81.4067115,53.2764341 81.9552034,47.6278154 C82.9444455,37.4327383 86.1949172,28.6023692 93.3915953,25.8453169 C102.016798,22.5349221 108.033577,18.0190352 112.354494,5.75363771 C120.931758,19.7310344 125.917102,31.277001 129.804852,44.1231086 C128.907208,33.4709278 125.618703,20.2774067 118.08706,6.56807237 C133.039547,16.5366886 142.408547,26.6401736 148.179635,36.0106785 C154.3971,46.1064596 156.435753,55.3538228 156.72926,62.6556213 C158.475629,56.6049273 159.187384,45.9536025 148.085468,30.1654244 C152.479518,34.0274498 156.001606,38.2716179 158.871864,42.7656156 C168.001166,57.053471 170.477634,73.8677481 172.933312,88.9752842 C172.449025,74.8512916 174.509691,62.7387755 159.954172,37.9734855 C164.05716,41.0025011 167.066834,42.5969837 175.709403,54.707054 C175.922195,56.8054757 176.100746,58.8036233 176.246276,60.7478429 C177.025294,71.1163209 176.791711,79.7345245 175.05268,91.2275414 C175.045342,91.2872168 175.038004,91.3435904 175.028221,91.4032658 C175.049011,91.3192556 175.069801,91.2283974 175.091814,91.1453654 C177.878911,80.1606899 179.756135,62.7693469 178.930646,56.2561686 C184.666269,63.735159 188.838965,74.333901 188.420717,87.3645376 C188.34734,89.518844 188.089298,91.9665136 187.686949,94.5846493 C186.166825,104.526473 182.495537,117.029325 178.233566,126.25382 C184.465705,118.691553 188.819398,107.720819 192.194732,91.5513538 C195.848899,149.200723 156.894358,182.236191 143.632717,187.405206 L143.632717,187.405206 Z" id="path38" fill="#104076"></path>
                            <path d="M151.842363,134.475085 C146.341546,135.942513 135.986851,135.707724 127.744186,131.437509 C127.063004,131.087772 126.681444,130.322264 126.647202,129.197236 C126.549366,123.960964 126.246075,118.62234 128.193007,114.619441 C128.706645,113.555067 129.00749,113.539781 129.606734,114.417303 C132.896463,119.238537 135.688451,124.672667 137.052038,131.635612 C141.108554,132.382777 145.594325,133.014994 151.178302,132.468377 C152.573685,132.333863 153.870009,131.518218 155.217697,130.604744 C156.363599,124.075913 156.38072,118.093577 155.530772,112.442634 C155.381572,111.327267 155.764355,110.794102 156.561716,111.478657 C159.736488,114.135557 162.545598,118.458966 163.490936,125.769569 C163.541077,126.218358 163.424897,126.948403 163.30994,127.33238 C162.129795,130.970378 156.879683,133.148285 151.842363,134.475085" id="path40" fill="#FFFFFF"></path>
                            <path d="M147.404287,83.2612426 C146.820941,81.431727 146.059045,80.1715734 145.228663,79.1732333 C142.502714,76.3654325 140.907991,73.9044338 140.442048,71.7941503 C139.811007,71.4272933 139.194641,71.163034 138.580722,71.0431941 C135.705573,71.4626339 133.029764,72.3758631 130.619335,73.9718132 C129.738813,76.4806256 127.842021,78.9717066 126.181259,81.4843098 C125.448713,83.1609684 125.050033,84.8537687 124.80422,86.5343404 C124.220874,87.9314539 123.523794,87.1156863 122.809593,86.0031315 C121.595818,82.0308044 123.191153,78.0402568 124.639122,74.0707422 C125.085498,73.5375768 125.718985,73.0240994 126.762159,72.5106219 C131.300516,69.8824587 135.32279,68.6352673 138.795961,68.7330959 C140.692752,69.0851563 142.121154,69.796981 143.549557,70.5157761 C144.397059,71.1301392 145.211542,71.8122486 145.727626,72.9065828 C147.25631,75.4822855 148.399766,78.5585033 148.519615,83.0281662 C148.26891,84.1067256 147.903249,84.190369 147.404287,83.2612426" id="path42" fill="#FFFFFF"></path>
                            <path d="M172.374425,103.764144 C168.485453,113.576589 166.11905,116.097752 164.241825,117.791164 C167.647734,113.155315 170.224484,105.80766 172.515064,97.3522182 C173.031148,96.2273125 173.429829,96.893647 173.399255,99.2548606 C173.466517,109.856904 171.271327,119.520406 168.827878,129.059053 C169.858823,121.377069 171.793525,111.633959 172.374425,103.764144" id="path44" fill="#DEBF89"></path>
                            <path d="M157.77488,160.351951 C159.337807,160.217437 160.966773,159.621906 162.793856,158.139804 C162.726594,158.739004 162.843997,159.136432 162.012393,160.499917 C160.681826,161.682419 159.203283,160.634431 157.77488,160.351951" id="path46" fill="#8D2332"></path>
                            <path d="M153.007831,116.810556 C144.880123,100.510245 143.632717,91.2872168 142.785215,82.4635733 C145.412106,90.1087499 147.672112,98.0344498 151.641799,104.530875 C151.641799,102.337315 152.324204,99.6823713 153.007831,98.1681081 C153.671892,96.7207351 154.949872,84.6068739 154.834915,77.8252786 C155.481854,84.7907916 156.894358,91.8350565 153.088546,108.52179 C152.52599,109.683503 152.706986,113.090871 153.007831,116.810556" id="path48" fill="#DEBF89"></path>
                            <path d="M110.008881,166.897902 C108.131535,163.941035 108.56617,162.496842 110.725406,163.096041 C111.174472,163.209767 112.934905,164.474201 116.345705,164.724886 C114.848084,165.05628 113.634798,165.55276 112.853701,166.332943 C112.137054,167.049536 110.926092,167.031194 110.008881,166.897902" id="path50" fill="#8D2332"></path>
                            <path d="M143.119079,164.488875 C135.470767,172.367739 116.591762,186.90628 100.354324,175.157075 C100.056658,173.645624 99.5426534,172.214882 98.6269105,170.489432 C97.4139913,168.146439 93.9070676,166.319491 91.1491991,165.472052 C82.9884716,162.994544 78.0856758,164.040087 74.7283185,167.264759 C74.7674528,167.241525 74.8080546,167.220736 74.8468221,167.197502 C74.6824579,167.294108 74.5205397,167.394382 74.3624126,167.499548 C72.0029804,164.609938 75.4586626,157.078364 81.3751595,154.868663 C75.3932349,133.444217 53.5049237,109.332421 56.8460158,88.7292455 C63.0118716,99.314536 70.7905504,109.552658 86.3453397,118.207669 C78.4014408,116.612208 70.6404947,112.523832 63.3439018,101.586848 C65.2715114,116.34856 72.336845,132.051383 78.8161422,140.478087 C80.3791912,128.995465 86.7112455,123.078062 96.3161515,120.949558 C95.7023542,117.061241 95.9173484,113.969738 96.6003645,111.695958 C86.4270326,97.6546306 84.1851255,80.8681124 84.3179376,72.0911821 C89.3200367,87.0000041 93.8406615,95.0236548 98.1950878,100.577135 C100.769881,90.1422562 108.100472,84.970796 113.732634,73.9389183 C123.539693,54.7338345 125.141754,51.5434019 130.494594,46.84641 C126.893014,52.810159 124.903279,59.8196948 126.346357,69.1014202 C126.401389,69.059354 126.462537,69.02169 126.518792,68.9801129 C125.637047,69.6431457 124.814004,70.3472665 124.087573,71.0760889 C118.321132,76.8436917 112.187317,89.9879317 110.044714,101.886937 C109.894291,102.738045 109.695929,104.349281 110.873505,107.65723 C112.970737,113.522172 115.545653,121.248669 118.454922,126.751523 C118.039242,126.866471 117.640317,126.965523 117.222314,127.065797 C109.860782,129.295065 103.046153,133.762159 97.6801046,144.465822 C96.6825465,147.655032 97.1975296,150.361214 99.9243353,152.308001 C104.445938,155.864068 110.873505,158.057872 119.634822,158.605712 C120.915125,159.42258 121.994743,160.320157 122.443932,161.579699 C118.321132,163.972829 114.582949,162.610567 111.107577,158.905312 C109.146581,159.6537 107.949927,160.717585 107.567756,162.112865 C106.755719,164.272429 105.623514,166.249788 102.03343,166.933365 C102.666428,166.915022 103.249284,166.879559 104.42686,167.148588 C105.857587,168.210027 106.356794,169.325272 109.712683,170.271763 C110.758915,170.455192 111.757329,170.522449 112.340186,169.876781 C114.432526,167.929993 115.196868,166.018668 121.079856,163.972829 C124.288136,163.394418 127.04466,163.345504 128.210129,165.25316 C128.261492,165.196909 128.323863,165.145549 128.383787,165.092966 C131.608699,167.263536 136.524947,167.065434 143.119079,164.488875" id="path52" fill="#DEBF89"></path>
                            <path d="M132.580942,164.008292 C132.045291,164.029521 131.564673,164.070652 131.130527,164.130358 C131.567119,164.070652 132.042845,164.028194 132.580942,164.008292" id="path54" fill="#DEBF89"></path>
                            <path d="M124.266686,158.780012 C124.236167,158.703058 124.195033,158.631411 124.165842,158.553129 C124.228206,158.571705 124.286589,158.591607 124.350281,158.610182 L124.266686,158.780012" id="path56" fill="#DEBF89"></path>
                            <path d="M123.937151,143.615937 C122.511194,146.790473 119.434136,150.034711 118.254237,152.673635 C117.273433,154.863771 119.012342,156.786102 123.041953,158.191164 C118.688994,157.023336 114.382385,156.031599 108.814551,151.476459 C107.718301,150.697499 107.254926,149.666631 107.402903,148.387523 C109.846474,136.456112 115.762971,135.326193 120.915125,131.787246 C122.649387,133.400194 124.436113,134.543565 126.271757,135.371439 C126.181259,135.331084 126.089538,135.300513 126.000263,135.258936 C125.632156,139.097482 124.652575,142.054349 123.937151,143.615937" id="path58" fill="#DEBF89"></path>
                            <path d="M82.0860587,167.003068 C82.7414362,167.389491 83.4045182,167.899422 84.0690678,168.563433 C83.4035399,167.901867 82.740947,167.388268 82.0860587,167.003068" id="path60" fill="#DEBF89"></path>
                            <path d="M130.494594,46.84641 C130.49704,46.8416409 130.499486,46.8368718 130.503155,46.8316135 C130.588761,46.7680249 130.656023,46.7006455 130.736738,46.6338776 C138.580722,49.0437609 146.642391,59.1824642 147.220845,69.3344967 C144.845881,66.7225975 142.171295,64.9790487 139.127379,64.4154341 C138.736036,64.3465873 138.312896,64.3222524 137.872635,64.3246981 C137.81638,64.3246981 137.760124,64.3237199 137.701423,64.3246981 C137.261162,64.337049 136.801333,64.3796044 136.324384,64.4555438 C136.280358,64.4617804 136.236332,64.4713186 136.192306,64.4789003 C135.207833,64.6460648 134.162213,64.9408955 133.09458,65.339669 C133.030987,65.3631479 132.968617,65.385037 132.907469,65.4094942 C132.3975,65.6038061 131.887531,65.8226974 131.376339,66.0600538 C131.287064,66.1016309 131.197789,66.1455315 131.109737,66.188576 C130.631564,66.4183508 130.155838,66.6629221 129.68378,66.9246134 C129.625079,66.9576305 129.565154,66.9891802 129.507676,67.0210967 C129.053962,67.2781412 128.608809,67.5532839 128.168548,67.834174 C128.026686,67.9258883 127.882379,68.0176025 127.74174,68.1131076 C127.323492,68.3920412 126.915027,68.6806353 126.518792,68.9801129 C126.462537,69.02169 126.401389,69.059354 126.346357,69.1014202 C124.903279,59.8196948 126.893014,52.810159 130.494594,46.84641" id="path62" fill="#CBA569"></path>
                            <path d="M142.65069,179.079999 C144.4472,175.970275 145.742301,172.984059 145.925743,170.188609 C127.443341,193.056026 100.105943,181.32394 95.7529843,174.177567 C87.9404299,174.044276 86.9946024,171.46894 84.0690678,168.563433 C83.4045182,167.899422 82.7414362,167.389491 82.0860587,167.003068 C82.0740739,166.996954 82.0625782,166.990839 82.0507156,166.983502 C81.8467279,166.864885 81.6427403,166.758497 81.4402203,166.663114 C81.4157613,166.652108 81.3919138,166.643548 81.3675772,166.631319 C81.1793656,166.546942 80.991154,166.469902 80.8042877,166.403868 C80.7666209,166.390417 80.729321,166.380634 80.6920211,166.368405 C80.5200747,166.310931 80.3491067,166.259571 80.1780163,166.217994 C80.1283647,166.205765 80.078713,166.197205 80.0285722,166.1862 C79.8727687,166.153183 79.7170875,166.122611 79.5622623,166.101823 C79.5016042,166.093263 79.4414352,166.088371 79.3802878,166.081034 C79.2389151,166.06636 79.0979093,166.055354 78.9580041,166.04924 C78.8868285,166.046794 78.8165091,166.046794 78.7458227,166.045571 C78.6182693,166.045571 78.490349,166.046794 78.3636517,166.055354 C78.2858722,166.059023 78.2079705,166.065137 78.1305579,166.072474 C78.0125435,166.08348 77.8955074,166.096931 77.7794497,166.114051 C77.6967785,166.127503 77.6150856,166.140954 77.5333927,166.155628 C77.4230829,166.176417 77.312773,166.199651 77.2042976,166.225331 C77.120648,166.244897 77.0376099,166.265685 76.9549387,166.28892 C76.8484199,166.317045 76.7432465,166.350062 76.6381953,166.38308 C76.5569916,166.40876 76.4757879,166.435662 76.3950734,166.465011 C76.2880655,166.504142 76.1820359,166.544497 76.0763733,166.58852 C76.0028742,166.617868 75.9302311,166.647217 75.857588,166.679011 C75.7415303,166.730371 75.626451,166.784177 75.5127169,166.840428 C75.4553606,166.868554 75.3980044,166.895456 75.3412597,166.924805 C75.2036781,166.995731 75.0684201,167.070325 74.9346297,167.147365 C74.9050344,167.164485 74.8759282,167.180382 74.8468221,167.197502 C74.8080546,167.220736 74.7674528,167.241525 74.7283185,167.264759 C78.0856758,164.040087 82.9884716,162.994544 91.1491991,165.472052 C93.9070676,166.319491 97.4139913,168.146439 98.6269105,170.489432 C99.5426534,172.214882 100.056658,173.645624 100.354324,175.157075 C116.591762,186.90628 135.470767,172.367739 143.119079,164.488875 C136.524947,167.065434 131.608699,167.263536 128.383787,165.092966 C128.381341,165.09052 128.377672,165.089297 128.374003,165.088075 C128.399685,165.06484 128.431482,165.045275 128.45961,165.023263 C128.484069,165.003697 128.512196,164.984132 128.537878,164.964566 C128.612478,164.909538 128.69197,164.856955 128.778799,164.805595 C128.819156,164.781138 128.861959,164.757903 128.904763,164.734669 C128.984254,164.693092 129.066192,164.652738 129.153021,164.614829 C129.215391,164.587926 129.278984,164.561023 129.345024,164.535343 C129.420846,164.505995 129.501561,164.477869 129.583498,164.450966 C129.671551,164.421618 129.760826,164.393492 129.857439,164.366589 C129.923478,164.348246 129.995632,164.332349 130.064117,164.315229 C130.186411,164.285881 130.308706,164.256532 130.440784,164.230852 C130.488479,164.221069 130.541066,164.212509 130.589984,164.205172 C130.751413,164.175824 130.915288,164.148921 131.091392,164.125686 C131.104845,164.123241 131.11952,164.123241 131.130527,164.120795 C131.564673,164.065767 132.045291,164.027858 132.580942,164.008292 C131.990259,163.936144 131.435041,163.841984 130.911619,163.729481 C130.733069,163.691572 130.5802,163.637767 130.410211,163.594967 C130.0739,163.51059 129.735144,163.428658 129.426961,163.325938 C129.267978,163.273356 129.131008,163.206098 128.979362,163.148624 C128.687078,163.038567 128.393571,162.929733 128.129414,162.803779 C127.989998,162.736522 127.868926,162.657036 127.738071,162.584887 C127.489813,162.451596 127.239108,162.318305 127.015309,162.167893 C126.886899,162.08107 126.775611,161.983242 126.653317,161.891528 C126.456422,161.742339 126.254636,161.594374 126.078531,161.430511 C125.951345,161.313117 125.842502,161.185939 125.726322,161.061208 C125.583238,160.909574 125.436484,160.761608 125.309297,160.598968 C125.180888,160.437551 125.072046,160.263906 124.959535,160.093929 C124.871482,159.958192 124.777315,159.827346 124.697824,159.686717 C124.569414,159.461712 124.461795,159.223255 124.356621,158.983575 C124.326048,158.911426 124.284468,158.845392 124.253894,158.770798 L124.258786,158.762238 L124.335831,158.605712 C124.27713,158.588592 124.22332,158.570249 124.165842,158.553129 C123.772053,158.436958 123.400277,158.314672 123.041953,158.191164 C119.012342,156.786102 117.273433,154.863771 118.254237,152.673635 C119.434136,150.034711 122.511194,146.790473 123.937151,143.615937 C124.652575,142.054349 125.632156,139.097482 126.000263,135.258936 C126.089538,135.300513 126.181259,135.331084 126.271757,135.371439 C126.622743,135.529187 126.973729,135.673484 127.327161,135.809221 C127.561966,135.899713 127.800441,135.98409 128.037693,136.066021 C128.366666,136.178524 128.696862,136.284912 129.029503,136.381518 C129.253303,136.446329 129.477102,136.506249 129.702124,136.563724 C129.97851,136.634649 130.256119,136.699461 130.532505,136.760604 C130.806446,136.820523 131.079163,136.880443 131.354326,136.931803 C131.724879,137.002729 132.095432,137.067541 132.469654,137.123792 C132.737479,137.164146 133.007751,137.198386 133.275576,137.232626 C133.50549,137.263198 133.732959,137.2901 133.962873,137.31578 C134.236813,137.346352 134.511976,137.376923 134.788362,137.402603 C135.009716,137.423392 135.232292,137.440512 135.454868,137.458855 C135.977067,137.500432 136.501711,137.53834 137.031248,137.571357 C137.204906,137.58114 137.378565,137.592146 137.553446,137.601929 C138.31045,137.643506 139.07357,137.681414 139.84158,137.719323 C145.06112,137.985906 148.551411,137.85506 150.431081,140.491539 C148.899951,141.55787 147.022727,143.453297 142.94909,150.460265 C137.665957,153.072287 131.233254,155.598708 130.468912,158.587369 C134.425147,157.92825 137.698977,156.912056 143.201017,157.06369 C146.193569,158.242524 149.864857,158.02241 153.834544,157.196982 C157.376199,156.080514 160.681826,154.518926 163.873718,152.740892 C161.54645,147.888598 159.45521,142.918909 153.471328,139.793288 C153.40162,139.810408 153.320906,139.826305 153.238968,139.847093 C154.035107,137.952889 155.631053,136.169964 160.58399,134.358913 C163.27692,133.380628 165.720369,131.902195 165.454989,129.456482 C169.061461,133.181303 170.687981,137.202055 171.868125,143.8654 C172.367087,146.692644 171.635765,148.036563 169.825803,149.983351 C163.12772,157.196982 157.162183,159.603563 153.591177,160.585517 C153.253644,161.546682 152.107742,162.644807 150.844438,163.75883 C152.724108,162.427139 155.233595,161.700762 159.954172,163.192647 C161.117195,163.559504 162.726594,162.846579 164.523103,161.646956 C157.677044,170.089558 150.478776,176.453303 142.65069,179.079999" id="path64" fill="#CBA569"></path>
                            <path d="M154.969439,21.5112689 C154.680823,20.9940006 154.278474,20.5903356 153.758721,20.3018638 C153.238968,20.0132696 152.698426,19.8689726 152.134647,19.8689726 C151.569645,19.8689726 151.02788,20.0132696 150.50935,20.3018638 C149.99082,20.5903356 149.586025,20.9940006 149.297409,21.5112689 C149.008794,22.0286595 148.864486,22.5689175 148.864486,23.1330212 C148.864486,23.7000597 149.01124,24.2478995 149.30597,24.7714043 C149.599477,25.2950315 150.006719,25.698085 150.527694,25.9809317 C151.04867,26.2632893 151.584321,26.4026949 152.134647,26.4026949 C152.681304,26.4026949 153.215732,26.2632893 153.739154,25.9809317 C154.260129,25.698085 154.668594,25.2950315 154.960878,24.7714043 C155.253163,24.2478995 155.398693,23.7000597 155.398693,23.1330212 C155.398693,22.5689175 155.255609,22.0286595 154.969439,21.5112689 L154.969439,21.5112689 Z M154.059566,26.5460137 C153.43464,26.8847449 152.79137,27.0519094 152.134647,27.0519094 C151.476701,27.0519094 150.835877,26.8847449 150.208505,26.5460137 C149.582356,26.2097282 149.093177,25.726333 148.742191,25.0976624 C148.391205,24.4704593 148.215101,23.8151305 148.215101,23.1330212 C148.215101,22.4589827 148.388759,21.8098904 148.734853,21.1884348 C149.079725,20.5650225 149.564012,20.0791816 150.184046,19.7358035 C150.806526,19.3923031 151.455911,19.2198803 152.134647,19.2198803 C152.813383,19.2198803 153.462768,19.3923031 154.084025,19.7358035 C154.705282,20.0791816 155.188346,20.5650225 155.531995,21.1884348 C155.876866,21.8098904 156.048078,22.4589827 156.048078,23.1330212 C156.048078,23.8151305 155.87442,24.4704593 155.524657,25.0976624 C155.174894,25.726333 154.686938,26.2097282 154.059566,26.5460137 L154.059566,26.5460137 Z" id="path66" fill="#104076"></path>
                            <path d="M151.921854,23.3417628 L151.096365,23.3417628 L151.096365,24.612433 L151.869267,24.612433 C152.201909,24.612433 152.429377,24.5894433 152.551672,24.5402844 C152.676413,24.4924708 152.771803,24.4179988 152.840288,24.320048 C152.909996,24.2211189 152.944238,24.109839 152.944238,23.9852299 C152.944238,23.7907957 152.873307,23.6364712 152.728999,23.5179764 C152.584692,23.3996039 152.316866,23.3417628 151.921854,23.3417628 L151.921854,23.3417628 Z M152.82072,22.6300603 C152.728999,22.7170054 152.610373,22.7914773 152.462397,22.8540876 C152.824389,22.8807459 153.116674,23.0092681 153.336804,23.2367194 C153.555712,23.4663719 153.665777,23.734422 153.665777,24.0424596 C153.665777,24.2603726 153.599738,24.4656902 153.46766,24.658657 C153.338027,24.8530911 153.1607,24.9893174 152.939346,25.0661127 C152.717993,25.1454761 152.359669,25.1836293 151.863153,25.1836293 L150.416406,25.1836293 L150.416406,20.9695434 L151.096365,20.9695434 L151.096365,22.7609059 L151.496268,22.7609059 C151.734743,22.7609059 151.915739,22.712114 152.041703,22.6142854 C152.220253,22.4833175 152.458728,22.1570594 152.752235,21.6335545 L153.126457,20.9695434 L153.955616,20.9695434 L153.443201,21.7949716 C153.196165,22.1853074 152.989487,22.4652192 152.82072,22.6300603 L152.82072,22.6300603 Z" id="path68" fill="#104076"></path>
                        </g>
                    </g>
                </g>
            </g>
        </g>
    </g>
</svg>